<svg version="1.1" xmlns="http://www.w3.org/2000/svg" xmlns:xlink="http://www.w3.org/1999/xlink" x="0px" y="0px" role="none" viewBox="0 0 50 32.757" enable-background="new 0 0 50 32.757" xml:space="preserve"><g transform="translate(-90 -500)"><g><path d="M138.475,530.754c-0.561-0.121-1.053-0.304-1.478-0.544c-0.563-0.333-0.995-0.687-1.298-1.058	c-0.306-0.374-0.555-0.784-0.754-1.243c-1.185-2.791-2.618-6.31-4.303-10.56c-1.686-4.25-4.016-10.031-6.987-17.35h-4.554	c-2.141,5.162-4.095,9.879-5.861,14.16c-1.769,4.279-3.532,8.554-5.292,12.818c-0.288,0.728-0.648,1.358-1.081,1.889	c-0.433,0.533-0.96,0.98-1.581,1.344c-0.366,0.229-0.862,0.407-1.491,0.533c-0.629,0.129-1.195,0.209-1.697,0.24v1.773h13.251	v-1.773c-1.715-0.152-2.942-0.398-3.677-0.742c-0.737-0.339-1.105-0.755-1.105-1.238c0-0.151,0.026-0.418,0.081-0.798	c0.05-0.379,0.223-0.994,0.512-1.843c0.228-0.652,0.497-1.395,0.809-2.232c0.24-0.64,0.457-1.201,0.664-1.717h11.536l0.954,2.319	l1.607,3.907c0.105,0.255,0.171,0.462,0.19,0.61c0.025,0.152,0.037,0.291,0.037,0.411c0,0.35-0.553,0.64-1.662,0.876	c-1.108,0.236-1.716,0.384-2.536,0.444v1.775H140v-1.773C139.545,530.952,139.035,530.878,138.475,530.754z M122.748,518.965	h-8.73l4.334-10.974L122.748,518.965z"></path><path
        d="M116.806,531.281c-0.414-0.091-0.777-0.223-1.091-0.403c-0.414-0.246-0.732-0.505-0.958-0.777	c-0.222-0.275-0.406-0.58-0.552-0.916c-0.872-2.056-1.929-4.649-3.172-7.782c-1.239-3.13-2.957-7.391-5.148-12.782h-3.353	c-1.576,3.802-3.018,7.281-4.32,10.436c-1.303,3.152-2.604,6.3-3.9,9.443c-0.211,0.534-0.477,1-0.796,1.396	c-0.319,0.392-0.707,0.72-1.166,0.984c-0.269,0.17-0.635,0.301-1.1,0.397c-0.466,0.096-0.882,0.151-1.25,0.177v1.304h9.762v-1.307	c-1.262-0.111-2.167-0.293-2.708-0.544c-0.54-0.252-0.814-0.556-0.814-0.916c0-0.111,0.021-0.307,0.061-0.586	c0.036-0.28,0.162-0.73,0.376-1.357c0.167-0.48,0.365-1.031,0.596-1.646c0.059-0.158,0.409-1.047,0.89-2.264h7.723l2.265,5.586	c0.078,0.188,0.124,0.34,0.142,0.452c0.017,0.111,0.027,0.212,0.027,0.303c0,0.255-0.411,0.472-1.226,0.646	c-0.819,0.173-1.528,0.283-2.131,0.329v1.304h12.624v-1.307C117.586,531.45,117.22,531.373,116.806,531.281z M98.844,522.413	c1.371-3.462,3.133-7.903,3.133-7.903l3.207,7.903H98.844z"></path></g></g></svg>