<svg version="1.1" xmlns="http://www.w3.org/2000/svg" xmlns:xlink="http://www.w3.org/1999/xlink" x="0px" y="0px" role="none" viewBox="0 0 34.354 20.866" enable-background="new 0 0 34.354 20.866" xml:space="preserve"><g><g><path d="M7.922,0.354h3.009l7.141,19.675h-2.919l-2.055-5.893H5.379l-2.134,5.893H0.512L7.922,0.354z M12.342,11.966L9.313,3.274	l-3.148,8.692H12.342z"></path><path
        d="M18.578,20.385H14.9l-2.055-5.894H5.627l-2.134,5.894H0L7.676,0h3.503L18.578,20.385L18.578,20.385z M15.404,19.675h2.162	L10.682,0.709H8.168L1.025,19.675h1.971l2.134-5.893h8.219L15.404,19.675L15.404,19.675z M12.84,12.321H5.658L9.319,2.215	L12.84,12.321L12.84,12.321z M6.67,11.612h5.172L9.306,4.333L6.67,11.612L6.67,11.612z"></path></g><g><path d="M28.789,11.348c0.553-0.071,0.924-0.302,1.111-0.695c0.107-0.215,0.16-0.524,0.16-0.928c0-0.824-0.293-1.423-0.875-1.795	c-0.584-0.372-1.42-0.557-2.506-0.557c-1.258,0-2.149,0.341-2.674,1.023c-0.295,0.377-0.486,0.938-0.576,1.682h-2.25	c0.046-1.773,0.619-3.006,1.721-3.7c1.1-0.694,2.379-1.041,3.833-1.041c1.686,0,3.053,0.322,4.107,0.964	c1.043,0.643,1.564,1.643,1.564,3v8.265c0,0.25,0.051,0.45,0.154,0.604c0.102,0.15,0.318,0.227,0.648,0.227	c0.107,0,0.229-0.008,0.363-0.02c0.133-0.014,0.275-0.033,0.428-0.061v1.78c-0.375,0.107-0.66,0.175-0.857,0.201	c-0.195,0.026-0.463,0.04-0.803,0.04c-0.83,0-1.434-0.295-1.809-0.885c-0.197-0.313-0.334-0.754-0.416-1.325	c-0.488,0.644-1.195,1.2-2.115,1.675c-0.92,0.473-1.932,0.709-3.04,0.709c-1.332,0-2.418-0.403-3.262-1.211	c-0.844-0.807-1.266-1.816-1.266-3.029c0-1.329,0.414-2.358,1.246-3.09c0.83-0.732,1.92-1.182,3.268-1.353L28.789,11.348z M23.711,17.861c0.51,0.401,1.112,0.602,1.808,0.602c0.85,0,1.67-0.197,2.465-0.589c1.34-0.651,2.01-1.716,2.01-3.196v-1.939	c-0.295,0.189-0.674,0.346-1.137,0.471s-0.916,0.215-1.363,0.268l-1.457,0.188c-0.874,0.116-1.53,0.299-1.969,0.549	c-0.746,0.418-1.119,1.088-1.119,2.004C22.949,16.913,23.203,17.461,23.711,17.861z"></path>
    <path
            d="M24.958,20.866c-1.418,0-2.599-0.44-3.507-1.309c-0.912-0.872-1.375-1.979-1.375-3.286c0-1.428,0.459-2.557,1.365-3.355	c0.881-0.776,2.045-1.26,3.459-1.438l3.844-0.481c0.428-0.055,0.701-0.218,0.836-0.497c0.057-0.118,0.125-0.344,0.125-0.775	c0-0.701-0.232-1.191-0.713-1.496c-0.521-0.333-1.301-0.502-2.314-0.502c-1.135,0-1.94,0.298-2.392,0.885	c-0.254,0.325-0.423,0.832-0.504,1.508l-0.037,0.313h-2.929l0.01-0.364c0.048-1.891,0.682-3.234,1.885-3.991	c1.153-0.727,2.507-1.095,4.022-1.095c1.744,0,3.188,0.342,4.291,1.016c1.152,0.709,1.736,1.821,1.736,3.303v8.265	c0,0.178,0.031,0.313,0.094,0.402c0.012,0.02,0.105,0.073,0.355,0.073c0.094,0,0.205-0.007,0.326-0.019	c0.125-0.013,0.26-0.031,0.402-0.057l0.416-0.072v2.471l-0.258,0.073c-0.395,0.113-0.691,0.183-0.906,0.212	c-0.213,0.028-0.492,0.043-0.852,0.043c-0.955,0-1.664-0.353-2.107-1.048c-0.133-0.209-0.238-0.458-0.322-0.753	c-0.467,0.458-1.053,0.867-1.748,1.227C27.193,20.614,26.117,20.866,24.958,20.866L24.958,20.866z M26.68,7.018	c1.15,0,2.057,0.207,2.697,0.614c0.689,0.44,1.039,1.145,1.039,2.094c0,0.463-0.064,0.818-0.197,1.085	c-0.24,0.502-0.707,0.802-1.385,0.889l-3.846,0.481c-1.27,0.161-2.306,0.586-3.077,1.266c-0.758,0.666-1.126,1.591-1.126,2.824	c0,1.121,0.379,2.029,1.157,2.773c0.782,0.748,1.769,1.111,3.016,1.111c1.044,0,2.013-0.225,2.878-0.67	c0.869-0.447,1.539-0.977,1.996-1.573l0.516-0.675l0.117,0.84c0.074,0.52,0.195,0.918,0.365,1.188	c0.307,0.482,0.801,0.718,1.508,0.718c0.322,0,0.576-0.013,0.756-0.037c0.133-0.019,0.316-0.059,0.551-0.12v-1.102	c-0.014,0.001-0.027,0.004-0.039,0.004c-0.145,0.015-0.279,0.021-0.396,0.021c-0.453,0-0.771-0.129-0.943-0.383	c-0.143-0.21-0.217-0.479-0.217-0.801V9.301c0-1.237-0.455-2.12-1.396-2.698c-0.988-0.605-2.309-0.912-3.92-0.912	c-1.379,0-2.605,0.332-3.644,0.986c-0.928,0.585-1.433,1.583-1.536,3.045h1.57c0.111-0.662,0.311-1.17,0.604-1.546	C24.319,7.409,25.312,7.018,26.68,7.018L26.68,7.018z M25.52,18.817c-0.776,0-1.457-0.228-2.028-0.677	c-0.596-0.471-0.898-1.117-0.898-1.924c0-1.051,0.438-1.828,1.3-2.313c0.483-0.275,1.17-0.469,2.097-0.592l1.459-0.188	c0.43-0.051,0.871-0.139,1.314-0.259c0.428-0.114,0.775-0.259,1.039-0.427l0.545-0.349v2.587c0,1.62-0.742,2.803-2.209,3.515	C27.301,18.607,26.42,18.817,25.52,18.817L25.52,18.817z M29.639,13.319c-0.207,0.087-0.438,0.165-0.689,0.232	c-0.477,0.13-0.951,0.223-1.412,0.278l-1.453,0.187c-0.824,0.11-1.444,0.28-1.842,0.505c-0.632,0.355-0.938,0.91-0.938,1.697	c0,0.586,0.205,1.031,0.628,1.365c0.449,0.354,0.969,0.525,1.59,0.525c0.789,0,1.564-0.188,2.307-0.553	c1.219-0.593,1.811-1.533,1.811-2.878V13.319L29.639,13.319z"></path></g></g></svg>