<svg version="1.1" xmlns="http://www.w3.org/2000/svg" xmlns:xlink="http://www.w3.org/1999/xlink" x="0px" y="0px" role="none" viewBox="0 0 36.801 36.801" enable-background="new 0 0 36.801 36.801" xml:space="preserve"><path d="M18.4,0C8.238,0,0,8.238,0,18.4s8.238,18.4,18.4,18.4s18.4-8.238,18.4-18.4C36.789,8.243,28.558,0.011,18.4,0z M18.4,26.4	c-4.418,0-8-3.582-8-8s3.582-8,8-8c4.418,0,8,3.582,8,8S22.818,26.4,18.4,26.4z M28.4,15.508l4.288-4.308	c2.253,4.461,2.285,9.72,0.088,14.208l-4.332-4.316c0.495-1.836,0.476-3.774-0.056-5.6L28.4,15.508z M31.416,9.108l-4.039,4.04	c-0.965-1.639-2.357-2.984-4.028-3.892L27.404,5.2c1.551,1.058,2.904,2.377,4,3.9L31.416,9.108z M25.248,3.944l-4.359,4.36	c-1.703-0.421-3.486-0.403-5.18,0.052L11.38,4.028C15.749,1.89,20.854,1.859,25.248,3.944L25.248,3.944z M9.249,5.289L13.3,9.34	c-1.655,0.936-3.024,2.305-3.96,3.96L5.289,9.249C6.367,7.708,7.708,6.367,9.249,5.289z M4.028,11.38l4.328,4.328	c-0.455,1.694-0.473,3.477-0.052,5.18l-4.36,4.36C1.859,20.854,1.89,15.749,4.028,11.38z M5.2,27.404l4.048-4.068	c0.908,1.671,2.253,3.064,3.892,4.028l-4.04,4.04C7.578,30.309,6.258,28.955,5.2,27.404z M11.2,32.688l4.308-4.288	c1.826,0.532,3.763,0.552,5.6,0.057l4.312,4.315C20.93,34.975,15.665,34.943,11.2,32.688z M27.541,31.512L23.5,27.461	c1.655-0.937,3.024-2.306,3.961-3.96l4.051,4.052c-1.078,1.541-2.418,2.881-3.959,3.959H27.541z"></path></svg>