<svg version="1.1" xmlns="http://www.w3.org/2000/svg" xmlns:xlink="http://www.w3.org/1999/xlink" x="0px" y="0px" role="none" viewBox="0 0 211.3 255" style="enable-background:new 0 0 211.3 255;" xml:space="preserve"><g><circle cx="105.7" cy="41.5" r="41.8"></circle><path
        d="M205.7,153L146.6,94c-4.7-4.9-11.5-7.2-18.2-6.1c-1.8-0.2-3.6-0.2-5.4,0H88.3c-1.7-0.2-3.4-0.2-5.2,0	c-6.6-1.2-13.3,0.8-18.1,5.4L5.6,153c-7.9,8.4-7.4,21.7,1,29.5c8,7.5,20.5,7.5,28.5,0l28.7-28.7v76.8c0.1,13.4,10.9,24.3,24.4,24.4	h34.8c13.4-0.1,24.3-10.9,24.4-24.4v-76.8l28.7,28.7c8.4,7.9,21.7,7.4,29.5-1C213.2,173.5,213.2,161.1,205.7,153z"></path></g></svg>