<svg version="1.1" xmlns="http://www.w3.org/2000/svg" xmlns:xlink="http://www.w3.org/1999/xlink" x="0px" y="0px" role="none" viewBox="0 0 50 50" enable-background="new 0 0 50 50" xml:space="preserve"><g><path d="M49.057,20.785l-6.01-1.181c-0.394-1.183-0.885-2.364-1.477-3.448l3.548-5.024c0.295-0.493,0.196-1.181-0.198-1.576	l-4.333-4.335c-0.395-0.393-1.086-0.491-1.577-0.197l-5.024,3.448c-1.082-0.59-2.265-1.084-3.448-1.379l-1.083-6.106	C29.355,0.494,28.765,0,28.173,0h-6.008c-0.591,0-1.184,0.494-1.281,0.987L19.8,6.995c-1.28,0.394-2.463,0.888-3.645,1.478	l-5.123-3.448C10.64,4.631,9.851,4.73,9.457,5.123L5.222,9.457c-0.395,0.396-0.494,1.084-0.197,1.577l3.545,5.123	c-0.689,1.084-1.083,2.265-1.477,3.448l-6.01,1.181c-0.59,0.101-1.082,0.593-1.082,1.183v6.107c0,0.592,0.492,1.084,1.082,1.183	l6.01,1.184c0.394,1.18,0.886,2.364,1.477,3.545l-3.447,5.022c-0.295,0.494-0.295,1.184,0.099,1.578l4.333,4.334	c0.394,0.394,1.084,0.491,1.577,0.098l5.123-3.447c1.083,0.59,2.266,1.083,3.546,1.479l1.083,6.009	c0.097,0.492,0.69,0.984,1.183,0.984h6.105c0.591,0,1.183-0.492,1.281-0.984l1.082-6.105c1.184-0.397,2.367-0.791,3.448-1.382	l5.024,3.351c0.492,0.395,1.184,0.295,1.578-0.099l4.233-4.335c0.493-0.395,0.493-1.083,0.196-1.576l-3.448-5.024	c0.594-1.082,1.085-2.267,1.479-3.446l6.01-1.184c0.593-0.099,0.984-0.591,0.984-1.183v-6.107	C50.042,21.377,49.649,20.886,49.057,20.785z M25.021,35.463c-5.713,0-10.44-4.727-10.44-10.44c0-5.812,4.727-10.443,10.44-10.443	c5.813,0,10.442,4.631,10.442,10.443C35.463,30.736,30.834,35.463,25.021,35.463z"></path></g></svg>