<svg version="1.1" xmlns="http://www.w3.org/2000/svg" xmlns:xlink="http://www.w3.org/1999/xlink" x="0px" y="0px" role="none" viewBox="0 0 42.112 50" enable-background="new 0 0 42.112 50" xml:space="preserve"><path d="M35.956,0.257C35.284,0.104,34.614,0,33.944,0c-3.715,0-6.966,2.528-7.894,6.138c-0.259,1.032-0.309,2.115-0.155,3.147l0,0	c-0.153-0.154-0.36-0.258-0.567-0.361L14.805,3.972c-1.393-0.67-2.993-0.103-3.715,1.238l-4.488,8.666	c-0.722,1.393-0.154,3.096,1.187,3.817c0.413,0.207,0.876,0.31,1.29,0.31c1.032,0,2.011-0.567,2.528-1.548l3.198-6.19l5.416,2.579	l-3.662,5.726c-0.258,0-0.516,0-0.774,0C7.119,18.467,0,25.586,0,34.304S7.119,50.09,15.836,50.09	c7.841,0,14.341-5.675,15.58-13.153v8.511c0,1.807,1.495,3.3,3.301,3.3c1.807,0,3.303-1.493,3.303-3.3V33.221	c0-1.341-0.826-2.527-2.013-3.043l-5.674-2.321c-0.722-1.651-1.755-3.146-2.993-4.436l3.044-4.798	c0.567-0.877,0.877-1.806,0.929-2.786c0.206,0.104,0.465,0.155,0.671,0.207c0.671,0.155,1.341,0.258,2.011,0.258	c3.716,0,6.965-2.528,7.895-6.139C42.919,5.829,40.289,1.393,35.956,0.257z M15.94,44.828c-5.829,0-10.524-4.695-10.524-10.524	c0-5.828,4.695-10.522,10.524-10.522c5.83,0,10.524,4.694,10.524,10.522C26.464,40.133,21.77,44.828,15.94,44.828z"></path></svg>